<?xml version="1.0" encoding="UTF-8"?>
<svg width="76px" height="76px" viewBox="0 0 76 76" version="1.1" xmlns="http://www.w3.org/2000/svg" xmlns:xlink="http://www.w3.org/1999/xlink">
    <!-- Generator: sketchtool 64 (101010) - https://sketch.com -->
    <title>DD409640-C8F7-4CDA-AF6A-808BD141BB8B</title>
    <desc>Created with sketchtool.</desc>
    <g id="Page-1" stroke="none" stroke-width="1" fill="none" fill-rule="evenodd">
        <g id="sns공유" transform="translate(-430.000000, -704.000000)">
            <g id="icn_url" transform="translate(430.000000, 704.000000)">
                <g id="Group-2">
                    <rect id="Rectangle" x="0" y="0" width="76" height="76"></rect>
                </g>
                <g id="Group" transform="translate(38.000000, 38.000000) rotate(-270.000000) translate(-38.000000, -38.000000) translate(11.000000, 12.000000)" fill="#FEFFFE" fill-rule="nonzero">
                    <path d="M49.125,26.5912548 L41.5625,19 L39.5,21.0703422 L47,28.5988593 C51.6875,33.3041825 51.6875,40.8954373 47,45.6007605 C42.375,50.243346 34.8125,50.3060837 30.0625,45.6007605 L22.5,38.0095057 L20.5,40.0798479 L28.0625,47.6711027 C30.9375,50.4942966 34.6875,52 38.625,52 C42.5625,52 46.3125,50.4315589 49.1875,47.6711027 C52,44.8479087 53.5,41.1463878 53.5,37.1311787 C53.5,33.1787072 51.9375,29.4144487 49.125,26.5912548 Z" id="Path"></path>
                    <path d="M15.4289436,2.88593156 C18.6179536,2.88593156 21.6193747,4.14068441 23.8704405,6.46197719 L31.436523,13.9904943 L33.5,11.9201521 L25.871388,4.32889734 C23.0575557,1.50570342 19.3057793,-1.8189894e-12 15.366414,-1.8189894e-12 C11.4270488,-1.8189894e-12 7.67527238,1.56844106 4.86144008,4.32889734 C-0.953813359,10.1634981 -0.953813359,19.5741445 4.86144008,25.4087452 L12.4275225,33 L14.5535291,30.9923954 L6.98744671,23.338403 C4.67385126,21.0798479 3.42325912,18.0684411 3.42325912,14.8688213 C3.42325912,11.6692015 4.67385126,8.65779468 6.98744671,6.39923954 C9.23851255,4.14068441 12.2399337,2.88593156 15.4289436,2.88593156 Z" id="Path"></path>
                    <polygon id="Rectangle" transform="translate(26.988258, 25.995218) rotate(-135.000000) translate(-26.988258, -25.995218) " points="18.0042148 24.6087766 35.9882033 24.5092175 35.9723015 27.3816601 17.988313 27.4812192"></polygon>
                </g>
            </g>
        </g>
    </g>
</svg>