<?xml version="1.0" encoding="utf-8"?>
<!-- Generator: Adobe Illustrator 24.3.0, SVG Export Plug-In . SVG Version: 6.00 Build 0)  -->
<svg version="1.1" id="레이어_1" xmlns="http://www.w3.org/2000/svg" xmlns:xlink="http://www.w3.org/1999/xlink" x="0px"
	 y="0px" viewBox="0 0 873 212.9" style="enable-background:new 0 0 873 212.9;" xml:space="preserve">
<g>
	<path d="M60.5,5.6C27.1,5.6,0,32.7,0,66.1V149c0,33.4,27.1,60.5,60.5,60.5S121,182.5,121,149V66.1C121,32.7,93.9,5.6,60.5,5.6z
		 M72.8,155.8c0,6.8-5.5,12.3-12.3,12.3s-12.3-5.5-12.3-12.3V59.4c0-6.8,5.5-12.3,12.3-12.3s12.3,5.5,12.3,12.3V155.8z"/>
	<path d="M610.8,123.3H500.9c-24.8,0-44.8,20.1-44.8,44.8v0c0,24.8,20.1,44.8,44.8,44.8h109.8c24.8,0,44.8-20.1,44.8-44.8v0
		C655.6,143.3,635.5,123.3,610.8,123.3z M599.6,174.8h-87.4c-3.7,0-6.7-3-6.7-6.7s3-6.7,6.7-6.7h87.4c3.7,0,6.7,3,6.7,6.7
		S603.3,174.8,599.6,174.8z"/>
	<path d="M236.5,192l20.9,20.9h167.4v-78.4H236.5V192z M285.8,168.1h89.7v11.2h-89.7V168.1z"/>
	<path d="M264.5,125.5h58.3c19.2,0,34.7-15.6,34.7-34.7v0c0-19.2-15.6-34.7-34.7-34.7h-58.3c-19.2,0-34.7,15.6-34.7,34.7v0
		C229.7,110,245.3,125.5,264.5,125.5z M271.2,85.2H316c3.1,0,5.6,2.5,5.6,5.6c0,3.1-2.5,5.6-5.6,5.6h-44.8c-3.1,0-5.6-2.5-5.6-5.6
		C265.6,87.7,268.1,85.2,271.2,85.2z"/>
	<path d="M500.9,112.1h13.4c29.7,0,53.8-24.1,53.8-53.8v0c0-29.7-24.1-53.8-53.8-53.8h-13.4c-29.7,0-53.8,24.1-53.8,53.8v0
		C447.1,88,471.2,112.1,500.9,112.1z M494.2,56c0-7.4,6-13.4,13.4-13.4s13.4,6,13.4,13.4v4.5c0,7.4-6,13.4-13.4,13.4
		s-13.4-6-13.4-13.4V56z"/>
	<polygon points="187.2,4.5 127.8,4.5 137.8,21.6 137.8,212.9 187.2,212.9 187.2,125.5 214,125.5 214,82.9 187.2,82.9 	"/>
	<polygon points="375.4,21.6 375.4,127.8 424.7,127.8 424.7,4.5 365.4,4.5 	"/>
	<polygon points="597.3,116.5 646.6,116.5 646.6,4.5 587.3,4.5 595.4,15.7 577.1,15.7 577.1,53.8 597.3,53.8 597.3,67.2 577.1,67.2 
		577.1,105.3 597.3,105.3 	"/>
	<path d="M813.6,4.5l10.1,17.2v61.3h-30.3V66.1c0-33.4-27.1-60.5-60.5-60.5s-60.5,27.1-60.5,60.5V149c0,33.4,27.1,60.5,60.5,60.5
		s60.5-27.1,60.5-60.5v-23.5h30.3v87.4H873V4.5H813.6z M745.2,155.8c0,6.8-5.5,12.3-12.3,12.3s-12.3-5.5-12.3-12.3V59.4
		c0-6.8,5.5-12.3,12.3-12.3s12.3,5.5,12.3,12.3V155.8z"/>
	<polygon points="359.7,15.7 317.1,15.7 317.1,0 257.8,0 267,15.7 225.3,15.7 225.3,49.3 359.7,49.3 	"/>
</g>
</svg>
