<?xml version="1.0" encoding="utf-8"?>
<!-- Generator: Adobe Illustrator 24.3.0, SVG Export Plug-In . SVG Version: 6.00 Build 0)  -->
<svg version="1.1" id="레이어_1" xmlns="http://www.w3.org/2000/svg" xmlns:xlink="http://www.w3.org/1999/xlink" x="0px"
	 y="0px" viewBox="0 0 1328 416.4" style="enable-background:new 0 0 1328 416.4;" xml:space="preserve">
<style type="text/css">
	.st0{fill:#DC92D1;}
	.st1{fill:#9D98A3;}
	.st2{fill:#F3D1BA;}
	.st3{clip-path:url(#SVGID_2_);fill:#534741;}
	.st4{clip-path:url(#SVGID_4_);fill:#F7F3E7;}
	.st5{clip-path:url(#SVGID_6_);fill:#E0C0A9;}
	.st6{clip-path:url(#SVGID_8_);fill:none;stroke:#7D7357;stroke-linecap:round;stroke-linejoin:round;stroke-miterlimit:10;}
	.st7{clip-path:url(#SVGID_10_);fill:#190A04;}
	.st8{clip-path:url(#SVGID_12_);fill:#A57DFF;}
	.st9{clip-path:url(#SVGID_14_);fill:#DC92D1;}
	.st10{clip-path:url(#SVGID_16_);fill:#36227F;}
	.st11{clip-path:url(#SVGID_18_);}
	.st12{fill:#A57DFF;}
	.st13{fill:#FFFFFF;}
</style>
<g>
	<g>
		<g>
			<path id="XMLID_00000067198894735157064250000012954638455595308188_" class="st0" d="M39.1,348.9l65.5-88l19.4,5.7L82.2,369.9
				c-2.8,6.9-13.2,5.6-13.5-1.7c-0.1-2.3,0.1-4.9,0.9-7.8c0,0-24.3,26.3-17-7.2c0,0-2,2-4.7,3.9C41.5,361.2,34.8,354.7,39.1,348.9z"
				/>
		</g>
	</g>
	<g>
		<g>
			<path id="XMLID_00000041264242358493674940000005063539502773429654_" class="st1" d="M165.1,289.6c0,0.1,0,0.2,0.1,0.2
				c0,0.2,0.1,0.4,0.1,0.5s0.1,0.2,0.2,0.3c0.1,0.2,0.2,0.3,0.3,0.4s0.1,0.1,0.1,0.2c0,0,0.1,0,0.1,0.1c0.1,0.1,0.3,0.2,0.5,0.3
				c0.1,0.1,0.2,0.1,0.4,0.1c0,0,0.1,0,0.1,0.1c1.5,0.2,5.7,1.4,7.5,4.1c0.9,1.3,1.1,2.8,0.7,4.6c-0.3,1.2,0.5,2.4,1.7,2.7
				c0.2,0,0.3,0.1,0.5,0.1c1,0,2-0.7,2.2-1.8c0.7-3.1,0.2-5.8-1.4-8.2c-0.3-0.4-0.6-0.8-0.9-1.1c1.8,0.4,3.6,1.1,4.8,2.3
				c1.6,1.4,2.3,3.5,2.1,6.2c-0.1,1.2,0.9,2.3,2.1,2.4c0.1,0,0.1,0,0.2,0c1.2,0,2.2-0.9,2.3-2.1c0.3-4.1-0.9-7.4-3.5-9.8
				c-4.4-4-11.6-4.2-15.5-4v-12.5c0-1.2-1-2.3-2.3-2.3c-1.2,0-2.3,1-2.3,2.3v14.9L165.1,289.6L165.1,289.6z M141.6,276.5v15
				c0,0.1,0,0.2,0.1,0.2c0,0.2,0.1,0.4,0.1,0.5s0.1,0.2,0.2,0.3c0.1,0.2,0.2,0.3,0.3,0.4s0.1,0.1,0.1,0.2c0,0,0.1,0,0.1,0.1
				c0.1,0.1,0.3,0.2,0.5,0.3c0.1,0.1,0.2,0.1,0.4,0.1c0,0,0.1,0,0.1,0.1c1.5,0.2,5.7,1.4,7.5,4.1c0.9,1.3,1.1,2.8,0.7,4.6
				c-0.3,1.2,0.5,2.4,1.7,2.7c0.2,0,0.3,0.1,0.5,0.1c1,0,2-0.7,2.2-1.8c0.7-3.1,0.2-5.8-1.4-8.2c-0.3-0.4-0.6-0.8-0.9-1.1
				c1.8,0.4,3.6,1.1,4.8,2.3c1.6,1.5,2.3,3.5,2.1,6.2c-0.1,1.2,0.9,2.3,2.1,2.4c0.1,0,0.1,0,0.2,0c1.2,0,2.2-0.9,2.3-2.1
				c0.3-4.1-0.9-7.4-3.5-9.8c-4.4-4-11.6-4.2-15.5-4v-12.5c0-1.2-1-2.3-2.3-2.3C142.6,274.3,141.6,275.3,141.6,276.5z"/>
		</g>
	</g>
	<g>
		<g>
			<path id="XMLID_00000121267893470588766680000014940253244490828933_" class="st2" d="M211,54.4c44.1,9.3,54.7,40.1,57.3,53.8
				c0.5,2.5-2.1,4.4-4.3,3.3c-3.5-1.8-8.5-3.3-13.9-1.8c-10.2,2.9-13.8,7.4-27.8,1.7c0,0,6,15,14.4,21.1c2,1.4,1.7,4.6-0.7,5.3
				c-6.4,2.1-16.6,3.3-25.3-5.8L211,54.4z"/>
		</g>
		<g>
			<g>
				<defs>
					<path id="SVGID_1_" d="M211,54.4c44.1,9.3,54.7,40.1,57.3,53.8c0.5,2.5-2.1,4.4-4.3,3.3c-3.5-1.8-8.5-3.3-13.9-1.8
						c-10.2,2.9-13.8,7.4-27.8,1.7c0,0,6,15,14.4,21.1c2,1.4,1.7,4.6-0.7,5.3c-6.4,2.1-16.6,3.3-25.3-5.8L211,54.4z"/>
				</defs>
				<clipPath id="SVGID_2_">
					<use xlink:href="#SVGID_1_"  style="overflow:visible;"/>
				</clipPath>
				<path class="st3" d="M247.7,133.4l-39.5-34.2l-1.4,45.2C206.8,144.3,242.9,157.6,247.7,133.4z"/>
			</g>
		</g>
	</g>
	<g>
		<g>
			<path id="XMLID_00000174563698042070226090000001764773362715753643_" class="st0" d="M116.7,105c-21.1,6.2-25.8-9.2-25.8-9.2
				c13.6,1.7,23-2.2,29-6.7c2.5-1.8,4.6-4.1,6.2-6.6C154,38.6,213.5,55,213.5,55v168.3c0,26.4-18.6,49.4-44.5,54.4
				c-18.2,3.5-42.9,4.4-75.8-1.2l-10.8-16.8C108.5,202.3,107.3,154.3,116.7,105z"/>
		</g>
		<g>
			<g>
				<defs>
					<path id="SVGID_3_" d="M116.7,105c-21.1,6.2-25.8-9.2-25.8-9.2c13.6,1.7,23-2.2,29-6.7c2.5-1.8,4.6-4.1,6.2-6.6
						C154,38.6,213.5,55,213.5,55v168.3c0,26.4-18.6,49.4-44.5,54.4c-18.2,3.5-42.9,4.4-75.8-1.2l-10.8-16.8
						C108.5,202.3,107.3,154.3,116.7,105z"/>
				</defs>
				<clipPath id="SVGID_4_">
					<use xlink:href="#SVGID_3_"  style="overflow:visible;"/>
				</clipPath>
				<path class="st4" d="M218,70.6c0,0-59.9-15.5-59.9,37.3c0,48.5,59.9,40.7,59.9,40.7V70.6z"/>
			</g>
		</g>
		<g>
			<g>
				<defs>
					<path id="SVGID_5_" d="M116.7,105c-21.1,6.2-25.8-9.2-25.8-9.2c13.6,1.7,23-2.2,29-6.7c2.5-1.8,4.6-4.1,6.2-6.6
						C154,38.6,213.5,55,213.5,55v168.3c0,26.4-18.6,49.4-44.5,54.4c-18.2,3.5-42.9,4.4-75.8-1.2l-10.8-16.8
						C108.5,202.3,107.3,154.3,116.7,105z"/>
				</defs>
				<clipPath id="SVGID_6_">
					<use xlink:href="#SVGID_5_"  style="overflow:visible;"/>
				</clipPath>
				<path class="st5" d="M173.2,125.5c0-2.6,4.8-4.8,10.8-4.8s10.8,2.1,10.8,4.8c0,2.6-4.8,4.8-10.8,4.8
					C178.1,130.3,173.2,128.2,173.2,125.5z"/>
			</g>
		</g>
		<g>
			<g>
				<defs>
					<path id="SVGID_7_" d="M116.7,105c-21.1,6.2-25.8-9.2-25.8-9.2c13.6,1.7,23-2.2,29-6.7c2.5-1.8,4.6-4.1,6.2-6.6
						C154,38.6,213.5,55,213.5,55v168.3c0,26.4-18.6,49.4-44.5,54.4c-18.2,3.5-42.9,4.4-75.8-1.2l-10.8-16.8
						C108.5,202.3,107.3,154.3,116.7,105z"/>
				</defs>
				<clipPath id="SVGID_8_">
					<use xlink:href="#SVGID_7_"  style="overflow:visible;"/>
				</clipPath>
				<path class="st6" d="M202.9,102.8c0-9.4-6.6-17-14.7-17c-8.1,0-14.7,7.6-14.7,17"/>
			</g>
		</g>
		<g>
			<g>
				<defs>
					<path id="SVGID_9_" d="M116.7,105c-21.1,6.2-25.8-9.2-25.8-9.2c13.6,1.7,23-2.2,29-6.7c2.5-1.8,4.6-4.1,6.2-6.6
						C154,38.6,213.5,55,213.5,55v168.3c0,26.4-18.6,49.4-44.5,54.4c-18.2,3.5-42.9,4.4-75.8-1.2l-10.8-16.8
						C108.5,202.3,107.3,154.3,116.7,105z"/>
				</defs>
				<clipPath id="SVGID_10_">
					<use xlink:href="#SVGID_9_"  style="overflow:visible;"/>
				</clipPath>
				<path class="st7" d="M199.2,102.8c0-7.1-4.9-12.8-11-12.8s-11,5.7-11,12.8c0,7.1,4.9,12.8,11,12.8S199.2,109.8,199.2,102.8z"/>
			</g>
		</g>
		<g>
			<g>
				<defs>
					<path id="SVGID_11_" d="M116.7,105c-21.1,6.2-25.8-9.2-25.8-9.2c13.6,1.7,23-2.2,29-6.7c2.5-1.8,4.6-4.1,6.2-6.6
						C154,38.6,213.5,55,213.5,55v168.3c0,26.4-18.6,49.4-44.5,54.4c-18.2,3.5-42.9,4.4-75.8-1.2l-10.8-16.8
						C108.5,202.3,107.3,154.3,116.7,105z"/>
				</defs>
				<clipPath id="SVGID_12_">
					<use xlink:href="#SVGID_11_"  style="overflow:visible;"/>
				</clipPath>
				<path class="st8" d="M111.8,154.9c0,0,7.4-9,23-3c0,0,10.8,2.4,20.4,9.6c0,0,9,6.6,13.8,18.6c0,0,6,18,3.6,39.5
					c0,0,0,22.8-13.2,47.9c0,0-5,8.1-11.5,12.4l-39.2-120.5L111.8,154.9z"/>
			</g>
		</g>
	</g>
	<g>
		<g>
			<path id="XMLID_00000014617914815636642310000013021242030968018873_" class="st0" d="M106.8,163
				C50.4,285.4,94.1,289.6,94.1,289.6c10.7,17.2,22.8,1.9,22.8,1.9c36.4,26.2,96.5-130.5,7-139.4C124,152.1,111.1,152.1,106.8,163z"
				/>
		</g>
		<g>
			<g>
				<defs>
					<path id="SVGID_13_" d="M106.8,163C50.4,285.4,94.1,289.6,94.1,289.6c10.7,17.2,22.8,1.9,22.8,1.9
						c36.4,26.2,96.5-130.5,7-139.4C124,152.1,111.1,152.1,106.8,163z"/>
				</defs>
				<clipPath id="SVGID_14_">
					<use xlink:href="#SVGID_13_"  style="overflow:visible;"/>
				</clipPath>
				<path id="XMLID_00000121967621206912387680000010165547760703112083_" class="st9" d="M117.2,290.9
					c36.4,26.2,95.2-132.2,5.7-141.1"/>
			</g>
		</g>
		<g>
			<g>
				<defs>
					<path id="SVGID_15_" d="M106.8,163C50.4,285.4,94.1,289.6,94.1,289.6c10.7,17.2,22.8,1.9,22.8,1.9
						c36.4,26.2,96.5-130.5,7-139.4C124,152.1,111.1,152.1,106.8,163z"/>
				</defs>
				<clipPath id="SVGID_16_">
					<use xlink:href="#SVGID_15_"  style="overflow:visible;"/>
				</clipPath>
				<path class="st10" d="M167.4,252.7c0,0-57.5,8.8-93.4-8.8c0,0-7.3,54,34.8,60.4C150.7,310.8,167.4,252.7,167.4,252.7z"/>
			</g>
		</g>
		<g>
			<g>
				<defs>
					<path id="SVGID_17_" d="M106.8,163C50.4,285.4,94.1,289.6,94.1,289.6c10.7,17.2,22.8,1.9,22.8,1.9
						c36.4,26.2,96.5-130.5,7-139.4C124,152.1,111.1,152.1,106.8,163z"/>
				</defs>
				<clipPath id="SVGID_18_">
					<use xlink:href="#SVGID_17_"  style="overflow:visible;"/>
				</clipPath>
				<g class="st11">
					<path class="st12" d="M75,235.5c-2.5,7.5-0.6,20.8,5.3,26s16.5,1.9,23.7-1.5c-0.2,3.9,1.4,7.7,4.9,9.3
						c3.5,1.6,7.7,1.3,11.3-0.1c3.6-1.4,6.5-4,9.2-6.7c0.9,5.7,7.3,9.7,13.1,9.4c5.8-0.3,11-4,14.5-8.7s5.5-10.2,7.5-15.7l7.4-27.3
						c-2,5.5-4,11-7.5,15.7s-8.7,8.4-14.5,8.7s-12-3.6-12.9-9.3c-2.7,2.8-5.8,5.3-9.4,6.7s-7.8,1.7-11.3,0.1c-3.5-1.6-6.2-5.3-6-9.2
						c-7.1,3.4-16.7,6.6-22.6,1.4c-5.9-5.2-7.8-18.5-5.3-26L75,235.5z"/>
				</g>
			</g>
		</g>
	</g>
	<ellipse class="st13" cx="191.1" cy="100.9" rx="2.4" ry="3"/>
</g>
<g>
	<path d="M411.1,90.6c-33.4,0-60.5,27.1-60.5,60.5V234c0,33.4,27.1,60.5,60.5,60.5s60.5-27,60.5-60.5v-82.9
		C471.6,117.8,444.5,90.6,411.1,90.6z M423.4,240.9c0,6.8-5.5,12.3-12.3,12.3c-6.8,0-12.3-5.5-12.3-12.3v-96.4
		c0-6.8,5.5-12.3,12.3-12.3c6.8,0,12.3,5.5,12.3,12.3V240.9z"/>
	<path d="M961.4,208.4H851.5c-24.8,0-44.8,20.1-44.8,44.8l0,0c0,24.8,20.1,44.8,44.8,44.8h109.8c24.8,0,44.8-20.1,44.8-44.8l0,0
		C1006.2,228.4,986.1,208.4,961.4,208.4z M950.2,259.9h-87.4c-3.7,0-6.7-3-6.7-6.7c0-3.7,3-6.7,6.7-6.7h87.4c3.7,0,6.7,3,6.7,6.7
		C956.9,256.9,953.9,259.9,950.2,259.9z"/>
	<path d="M587.1,277l20.9,20.9h167.4v-78.4H587.1V277z M636.4,253.1h89.7v11.2h-89.7V253.1z"/>
	<path d="M615.1,210.5h58.3c19.2,0,34.7-15.6,34.7-34.7l0,0c0-19.2-15.6-34.7-34.7-34.7h-58.3c-19.2,0-34.7,15.6-34.7,34.7l0,0
		C580.3,195,595.9,210.5,615.1,210.5z M621.8,170.2h44.8c3.1,0,5.6,2.5,5.6,5.6s-2.5,5.6-5.6,5.6h-44.8c-3.1,0-5.6-2.5-5.6-5.6
		S618.7,170.2,621.8,170.2z"/>
	<path d="M851.5,197.1h13.4c29.7,0,53.8-24.1,53.8-53.8l0,0c0-29.7-24.1-53.8-53.8-53.8h-13.4c-29.7,0-53.8,24.1-53.8,53.8l0,0
		C797.7,173,821.8,197.1,851.5,197.1z M844.8,141c0-7.4,6-13.4,13.4-13.4s13.4,6,13.4,13.4v4.5c0,7.4-6,13.4-13.4,13.4
		s-13.4-6-13.4-13.4V141z"/>
	<polygon points="537.8,89.5 478.4,89.5 488.4,106.6 488.4,297.9 537.8,297.9 537.8,210.5 564.6,210.5 564.6,167.9 537.8,167.9 	"/>
	<polygon points="726,106.6 726,212.9 775.3,212.9 775.3,89.5 716,89.5 	"/>
	<polygon points="947.9,201.5 997.2,201.5 997.2,89.5 937.9,89.5 946,100.7 927.7,100.7 927.7,138.8 947.9,138.8 947.9,152.2 
		927.7,152.2 927.7,190.4 947.9,190.4 	"/>
	<path d="M1164.2,89.5l10.1,17.2V168H1144v-16.9c0-33.4-27.1-60.5-60.5-60.5s-60.5,27.1-60.5,60.5V234c0,33.4,27.1,60.5,60.5,60.5
		s60.5-27.1,60.5-60.5v-23.5h30.3v87.4h49.3V89.5H1164.2z M1095.8,240.9c0,6.8-5.5,12.3-12.3,12.3c-6.8,0-12.3-5.5-12.3-12.3v-96.4
		c0-6.8,5.5-12.3,12.3-12.3c6.8,0,12.3,5.5,12.3,12.3V240.9z"/>
	<polygon points="710.3,100.7 667.7,100.7 667.7,85 608.4,85 617.6,100.7 575.9,100.7 575.9,134.3 710.3,134.3 	"/>
</g>
</svg>
